<svg width="32" height="32" viewBox="0 0 32 32" fill="none" xmlns="http://www.w3.org/2000/svg">
<path d="M5.675 22.1251C4.18611 19.6131 3.66531 16.644 4.21039 13.7753C4.75546 10.9065 6.32891 8.33537 8.63535 6.5445C10.9418 4.75364 13.8226 3.86623 16.737 4.04888C19.6513 4.23152 22.3988 5.47165 24.4636 7.53646C26.5284 9.60127 27.7686 12.3488 27.9512 15.2631C28.1339 18.1775 27.2465 21.0583 25.4556 23.3647C23.6647 25.6712 21.0936 27.2446 18.2248 27.7897C15.3561 28.3348 12.387 27.814 9.875 26.3251V26.3251L5.725 27.5001C5.55497 27.5498 5.3747 27.5529 5.20307 27.509C5.03145 27.4651 4.87479 27.3758 4.74953 27.2506C4.62426 27.1253 4.535 26.9686 4.4911 26.797C4.4472 26.6254 4.45027 26.4451 4.5 26.2751L5.675 22.1251Z" stroke="#fff" stroke-width="2" stroke-linecap="round" stroke-linejoin="round"/>
</svg>
